<svg width="525" height="525" viewBox="0 0 525 525" fill="none" xmlns="http://www.w3.org/2000/svg">
<path d="M516.031 75.9379C510.46 60.6115 501.599 46.6927 490.072 35.1609C478.546 23.6292 464.633 14.7647 449.313 9.19133C420.656 0 394.625 0 341.687 0H182.875C130.375 0 103.906 0 75.6875 8.75365C60.3452 14.3503 46.4182 23.2482 34.8898 34.8193C23.3614 46.3903 14.5128 60.3522 8.96875 75.7191C0 104.168 0 130.429 0 182.951V342.049C0 394.79 0 420.832 8.75 449.281C14.3211 464.607 23.1818 478.526 34.7088 490.058C46.2357 501.59 60.1487 510.454 75.4688 516.027C103.906 525 130.156 525 182.656 525H341.906C394.625 525 420.875 525 449.094 516.246C464.476 510.677 478.447 501.791 490.014 490.219C501.582 478.646 510.464 464.67 516.031 449.281C525 420.832 525 394.571 525 342.049V183.389C525 130.648 525 104.387 516.031 75.9379ZM381.062 177.261L360.719 197.614C358.736 199.458 356.14 200.502 353.433 200.543C350.725 200.583 348.099 199.617 346.062 197.832C326.36 181.187 301.413 172.041 275.625 172.009C254.406 172.009 233.187 179.012 233.187 198.489C233.187 218.185 255.937 224.75 282.187 234.598C328.125 249.917 366.188 269.175 366.188 314.256C366.188 363.276 328.125 396.978 266 400.698L260.312 426.959C259.81 429.372 258.491 431.539 256.579 433.093C254.666 434.648 252.277 435.496 249.812 435.494H210.656L208.688 435.275C205.885 434.646 203.442 432.939 201.887 430.523C200.331 428.107 199.788 425.176 200.375 422.363L206.5 394.571C182.923 388.658 161.242 376.833 143.5 360.213V359.994C142.521 359.018 141.744 357.858 141.214 356.581C140.685 355.305 140.412 353.936 140.412 352.553C140.412 351.171 140.685 349.802 141.214 348.525C141.744 347.248 142.521 346.088 143.5 345.113L165.375 323.885C167.361 322.023 169.981 320.987 172.703 320.987C175.425 320.987 178.045 322.023 180.031 323.885C199.937 342.705 226.625 353.21 254.187 352.772C282.625 352.772 301.656 340.736 301.656 321.697C301.656 302.657 282.406 297.624 246.094 284.056C207.594 270.269 171.062 250.792 171.062 205.273C171.062 152.313 215.031 126.49 267.094 124.083L272.562 97.1655C273.071 94.7732 274.398 92.6336 276.315 91.1155C278.232 89.5974 280.618 88.796 283.062 88.8495H322L324.187 89.0684C329.875 90.3814 333.594 95.8524 332.281 101.542L326.375 131.524C346.062 138.089 364.656 148.374 380.625 161.942L381.062 162.38C385.219 166.757 385.219 173.322 381.062 177.261Z" fill="#EECE2E"/>
</svg>
